<svg width="400" height="57" viewBox="0 0 400 57" fill="none" xmlns="http://www.w3.org/2000/svg">
<path d="M21.7711 56.0452C33.1193 56.0452 41.1825 50.0725 41.1825 39.9935C41.1825 28.9439 32.298 26.1815 24.3841 23.7924C16.2463 21.3287 14.9771 19.6862 14.9771 17.2971C14.9771 15.2066 16.8436 13.3401 20.5765 13.3401C25.3547 13.3401 27.8185 15.6546 29.6103 19.3875L39.6893 13.4895C35.8817 5.79955 29.1623 1.69329 20.5765 1.69329C11.5428 1.69329 3.0316 7.51672 3.0316 17.5957C3.0316 27.6001 10.6468 31.333 18.4114 33.4981C26.2506 35.6633 29.237 36.9325 29.237 40.1428C29.237 42.1586 27.8185 44.3984 22.1444 44.3984C16.2463 44.3984 13.0359 41.4867 11.1695 37.1564L0.866481 43.1292C3.77819 50.8191 10.7962 56.0452 21.7711 56.0452ZM54.144 40.8147H80.6481C80.9467 39.3962 81.096 37.903 81.096 36.3352C81.096 25.0616 73.0328 16.6251 62.1326 16.6251C50.3364 16.6251 42.2732 25.211 42.2732 36.3352C42.2732 47.4594 50.1871 56.0452 62.9538 56.0452C70.0464 56.0452 75.5712 53.4322 79.2295 48.3553L70.2704 43.2038C68.7772 44.8463 66.1642 46.0409 63.1031 46.0409C58.9969 46.0409 55.5625 44.697 54.144 40.8147ZM53.92 32.4529C54.9653 28.6453 57.8023 26.5548 62.0579 26.5548C65.4176 26.5548 68.7772 28.1227 69.9718 32.4529H53.92ZM101.269 56.0452C108.585 56.0452 114.931 52.2376 118.142 46.4142L108.361 40.8147C107.167 43.4278 104.404 44.9957 101.119 44.9957C96.2664 44.9957 92.6828 41.4867 92.6828 36.3352C92.6828 31.1837 96.2664 27.6747 101.119 27.6747C104.404 27.6747 107.092 29.2426 108.361 31.8556L118.142 26.1815C114.931 20.4328 108.511 16.6251 101.269 16.6251C89.9204 16.6251 81.4839 25.211 81.4839 36.3352C81.4839 47.4594 89.9204 56.0452 101.269 56.0452ZM136.105 56.0452C147.08 56.0452 155.889 47.4594 155.889 36.3352C155.889 25.211 147.08 16.6251 136.105 16.6251C125.13 16.6251 116.32 25.211 116.32 36.3352C116.32 47.4594 125.13 56.0452 136.105 56.0452ZM136.105 45.145C131.252 45.145 127.519 41.636 127.519 36.3352C127.519 31.0344 131.252 27.5254 136.105 27.5254C140.958 27.5254 144.691 31.0344 144.691 36.3352C144.691 41.636 140.958 45.145 136.105 45.145ZM180.366 16.6251C175.438 16.6251 171.706 18.417 169.69 21.1794V17.6704H158.491V55H169.69V34.618C169.69 29.3172 172.527 26.9281 176.633 26.9281C180.217 26.9281 183.128 29.0932 183.128 33.7221V55H194.327V32.0796C194.327 22.0006 187.907 16.6251 180.366 16.6251ZM225.386 2.73852V21.1794C222.922 18.3423 219.264 16.6251 214.262 16.6251C204.482 16.6251 196.418 25.211 196.418 36.3352C196.418 47.4594 204.482 56.0452 214.262 56.0452C219.264 56.0452 222.922 54.3281 225.386 51.491V55H236.585V2.73852H225.386ZM216.502 45.4436C211.35 45.4436 207.617 41.9346 207.617 36.3352C207.617 30.7357 211.35 27.2268 216.502 27.2268C221.653 27.2268 225.386 30.7357 225.386 36.3352C225.386 41.9346 221.653 45.4436 216.502 45.4436ZM273.843 27.8987C276.68 25.4349 278.398 22.0006 278.398 17.6704C278.398 8.6366 271.006 2.73852 261.898 2.73852H241.441V55H263.391C272.724 55 280.264 48.9526 280.264 39.6949C280.264 34.394 277.726 30.3624 273.843 27.8987ZM261.898 13.9374C264.66 13.9374 266.452 15.8786 266.452 18.5663C266.452 21.254 264.586 23.1952 261.898 23.1952H253.387V13.9374H261.898ZM263.391 43.8011H253.387V33.7968H263.391C266.378 33.7968 268.319 35.8872 268.319 38.7989C268.319 41.7107 266.378 43.8011 263.391 43.8011ZM293.3 24.315V17.6704H282.101V55H293.3V38.127C293.3 30.7357 299.87 28.8693 304.499 29.6159V16.9238C299.796 16.9238 294.794 19.3129 293.3 24.315ZM332.009 17.6704V21.1794C329.545 18.3423 325.887 16.6251 320.885 16.6251C311.104 16.6251 303.041 25.211 303.041 36.3352C303.041 47.4594 311.104 56.0452 320.885 56.0452C325.887 56.0452 329.545 54.3281 332.009 51.491V55H343.208V17.6704H332.009ZM323.124 45.4436C317.973 45.4436 314.24 41.9346 314.24 36.3352C314.24 30.7357 317.973 27.2268 323.124 27.2268C328.276 27.2268 332.009 30.7357 332.009 36.3352C332.009 41.9346 328.276 45.4436 323.124 45.4436ZM353.29 14.3854C356.949 14.3854 360.01 11.3243 360.01 7.66604C360.01 4.00773 356.949 0.946701 353.29 0.946701C349.632 0.946701 346.571 4.00773 346.571 7.66604C346.571 11.3243 349.632 14.3854 353.29 14.3854ZM347.691 55H358.89V17.6704H347.691V55ZM385.227 16.6251C380.299 16.6251 376.566 18.417 374.551 21.1794V17.6704H363.352V55H374.551V34.618C374.551 29.3172 377.388 26.9281 381.494 26.9281C385.078 26.9281 387.989 29.0932 387.989 33.7221V55H399.188V32.0796C399.188 22.0006 392.767 16.6251 385.227 16.6251Z" fill="black"/>
</svg>
